# xmcd CD database file
#
# Track frame offsets:
#	150
#	20262
#	42197
#	60464
#	78537
#	105016
#	121561
#	142102
#	170351
#	191655
#
# Disc length: 2804 seconds
#
# Revision: 0
# Processed by: cddbd v1.5.1PL0 Copyright (c) Steve Scherf et al.
# Submitted via: CDex 1.51
#
DISCID=730af20a
DTITLE=Rob Costlow - Woods of Chaos
DYEAR=2005
DGENRE=New Age
TTITLE0=Meant to Be
TTITLE1=Reflections
TTITLE2=Semester Days
TTITLE3=Friend
TTITLE4=True Gemini
TTITLE5=Down the Road
TTITLE6=Tulip Trees
TTITLE7=Not Alone
TTITLE8=Woods of Chaos
TTITLE9=Twilight
EXTD=YEAR: 2005
EXTT0=
EXTT1=
EXTT2=
EXTT3=
EXTT4=
EXTT5=
EXTT6=
EXTT7=
EXTT8=
EXTT9=
PLAYORDER=
